<?xml version="1.0" standalone="no"?>
<!DOCTYPE svg PUBLIC "-//W3C//DTD SVG 20010904//EN"
 "http://www.w3.org/TR/2001/REC-SVG-20010904/DTD/svg10.dtd">
<svg version="1.0" xmlns="http://www.w3.org/2000/svg"
 width="63.000000pt" height="50.000000pt" viewBox="0 0 63.000000 50.000000"
 preserveAspectRatio="xMidYMid meet">

<g transform="translate(0.000000,50.000000) scale(0.100000,-0.100000)"
fill="#000000" stroke="none">
<path d="M0 250 l0 -250 315 0 315 0 0 250 0 250 -315 0 -315 0 0 -250z m253
69 c27 -38 -8 -88 -50 -72 -35 13 -44 51 -17 77 21 22 50 20 67 -5z m-115 -91
c16 -16 15 -53 -2 -68 -21 -16 -56 -9 -72 15 -27 41 39 88 74 53z m441 -10
c17 -45 -39 -87 -75 -58 -17 15 -18 52 -2 68 21 21 68 15 77 -10z"/>
</g>
</svg>
