<svg xmlns="http://www.w3.org/2000/svg" width="301" height="165" fill="none" viewBox="0 0 301 165"><path fill="#808495" d="m150.971 101.551-52.592-27.8L7.087 25.5c-.083-.084-.25-.084-.333-.084-3.333-1.583-6.75 1.75-5.5 5.083L47.77 149.142l.008.025c.05.117.092.234.142.35 1.908 4.425 6.075 7.159 10.608 8.234.383.083.658.159 1.118.251.458.101 1.099.24 1.649.282.091.008.175.008.266.017h.067c.067.008.133.008.2.016h.092c.058.009.125.009.183.009h.108c.067.008.134.008.2.008a817.7 817.7 0 0 0 177.259 0c.708 0 1.4-.033 2.067-.1l.633-.075c.025-.008.058-.008.083-.017.142-.016.284-.041.425-.066.209-.025.417-.067.625-.109.417-.091.607-.158 1.172-.352s1.504-.534 2.092-.818c.587-.283.995-.555 1.486-.863a26 26 0 0 0 1.774-1.215c.253-.194.426-.318.61-.493l-.1-.059z"/><path fill="#262730" d="M295.007 25.502h-.084l-91.325 48.25 50.767 75.609 46.4-118.859v-.167c1.167-3.5-2.417-6.666-5.758-4.833"/><path fill="#555867" d="M155.838 2.56c-2.333-3.409-7.417-3.409-9.667 0L98.379 73.752l52.592 27.8 99.667 52.674c.626-.613 1.128-1.21 1.659-1.841.75-.925 1.45-1.916 2.066-3.025l-50.766-75.608z"/></svg>
