<?xml version="1.0" encoding="iso-8859-1"?>
<!-- Uploaded to: SVG Repo, www.svgrepo.com, Generator: SVG Repo Mixer Tools -->
<svg xmlns="http://www.w3.org/2000/svg" xml:space="preserve" id="Layer_1" fill="currentColor" viewBox="0 0 496 496"><path d="M496 0H0v384h230.776l-16 112h19.12l29.528-14.768L285.576 496h17.584l8.84-79.528L320.832 496h17.584l22.16-14.768L390.112 496h19.12l-16-112H496zM288.944 479.024l-24.368-16.256-31.12 15.552 20.832-145.784a96.2 96.2 0 0 0 17.744 10.64l-11.016 71.608 15.816 2.432 10.544-68.536c5.104 1.36 10.336 2.376 15.736 2.872zM237.632 336H79.192C76.008 320.352 63.648 307.992 48 304.808V79.192C63.648 76.008 76.008 63.648 79.192 48H416.8c3.184 15.648 15.544 28.008 31.192 31.192V304.8c-15.648 3.184-28.008 15.544-31.192 31.192h-30.432l-2.384-16.688C398.88 302.384 408 280.264 408 256c0-52.936-43.064-96-96-96s-96 43.064-96 96c0 24.264 9.12 46.384 24.016 63.304zM312 336c-44.112 0-80-35.888-80-80s35.888-80 80-80 80 35.888 80 80-35.888 80-80 80m47.424 126.768-24.368 16.248-14.168-127.472c5.4-.496 10.632-1.512 15.736-2.872l10.544 68.536 15.816-2.432-11.016-71.608a96.2 96.2 0 0 0 17.744-10.64l20.832 145.784zM480 368h-89.056l-2.288-16H432v-8c0-13.232 10.768-24 24-24h8V64h-8c-13.232 0-24-10.768-24-24v-8H64v8c0 13.232-10.768 24-24 24h-8v256h8c13.232 0 24 10.768 24 24v8h171.344l-2.288 16H16V16h464z"/><path d="M312 192c-35.288 0-64 28.712-64 64s28.712 64 64 64 64-28.712 64-64-28.712-64-64-64m0 112c-26.472 0-48-21.528-48-48s21.528-48 48-48 48 21.528 48 48-21.528 48-48 48m-40.092 145.22-15.814-2.43 2.46-16.004 15.814 2.43zm80.197-.017-2.46-16.004 15.815-2.43 2.46 16.004z"/></svg>